<svg width="55" height="41" viewBox="0 0 55 41" fill="none" xmlns="http://www.w3.org/2000/svg">
<g clip-path="url(#clip0_5_48)" filter="url(#filter0_i_5_48)">
<path d="M27.502 3.01154C27.502 3.01154 31.0772 3.11497 33.1848 3.01154C34.6165 0.202882 34.9884 0 34.9884 0C34.9884 0 42.6827 1.38841 46.4099 3.67193C50.1371 5.95546 53.3524 17.2498 54.1162 20.6193C54.88 23.9889 55.4439 32.6218 54.5161 34.1454C52.9165 35.5657 44.0504 40.6976 40.3752 41C39.0475 39.528 37.5158 37.4474 37.3119 36.2261C38.5396 35.315 40.1112 34.7024 41.243 34.1972C41.295 33.2304 40.7351 33.131 38.7955 33.9943C35.2354 35.5459 31.3889 36.3413 27.502 36.3295V3.01154ZM36.504 17.1304C33.8806 17.1304 31.7571 19.6447 31.7571 22.7437C31.7571 25.8428 33.8806 28.3571 36.504 28.3571C39.1275 28.3571 41.251 25.8428 41.251 22.7437C41.251 19.6447 39.1275 17.1304 36.504 17.1304Z" fill="#271F55"/>
<path d="M27.5021 36.3295C23.6126 36.3424 19.7632 35.547 16.2006 33.9943C14.261 33.131 13.7011 33.2304 13.7531 34.1972C14.8769 34.7024 16.4565 35.315 17.6843 36.2261C17.4803 37.4474 15.9486 39.528 14.6209 41C10.9457 40.6976 2.05966 35.5657 0.480003 34.1454C-0.439796 32.6218 0.120081 23.9889 0.879916 20.6193C1.63975 17.2498 4.85906 5.95943 8.58624 3.67193C12.3134 1.38443 20.0077 0 20.0077 0C20.0077 0 20.3797 0.202882 21.8114 3.01154C23.9189 3.11497 27.4941 3.01154 27.4941 3.01154L27.5021 36.3295ZM18.5001 17.1304C15.8766 17.1304 13.7531 19.6447 13.7531 22.7437C13.7531 25.8428 15.8766 28.3571 18.5001 28.3571C21.1235 28.3571 23.247 25.8428 23.247 22.7437C23.247 19.6447 21.1235 17.1304 18.5001 17.1304Z" fill="#271F55"/>
</g>
<defs>
<filter id="filter0_i_5_48" x="0" y="0" width="55" height="41" filterUnits="userSpaceOnUse" color-interpolation-filters="sRGB">
<feFlood flood-opacity="0" result="BackgroundImageFix"/>
<feBlend mode="normal" in="SourceGraphic" in2="BackgroundImageFix" result="shape"/>
<feColorMatrix in="SourceAlpha" type="matrix" values="0 0 0 0 0 0 0 0 0 0 0 0 0 0 0 0 0 0 127 0" result="hardAlpha"/>
<feOffset dx="-2" dy="1"/>
<feComposite in2="hardAlpha" operator="arithmetic" k2="-1" k3="1"/>
<feColorMatrix type="matrix" values="0 0 0 0 0.454902 0 0 0 0 0.368627 0 0 0 0 0.976471 0 0 0 0.25 0"/>
<feBlend mode="normal" in2="shape" result="effect1_innerShadow_5_48"/>
</filter>
<clipPath id="clip0_5_48">
<rect width="55" height="41" fill="white"/>
</clipPath>
</defs>
</svg>
