<svg width="56" height="56" viewBox="0 0 56 56" fill="none" xmlns="http://www.w3.org/2000/svg">
<g clip-path="url(#clip0_5_44)">
<path d="M40.3696 56.0019H15.6285C11.4825 56.0019 7.50642 54.3549 4.5748 51.4233C1.64319 48.4917 -0.00377655 44.5156 -0.00377655 40.3696V15.6285C-0.00377655 11.4825 1.64319 7.50641 4.5748 4.5748C7.50642 1.64318 11.4825 -0.00378418 15.6285 -0.00378418H40.3696C44.5156 -0.00378418 48.4917 1.64318 51.4233 4.5748C54.3549 7.50641 56.0019 11.4825 56.0019 15.6285V40.3696C56.0019 44.5156 54.3549 48.4917 51.4233 51.4233C48.4917 54.3549 44.5156 56.0019 40.3696 56.0019ZM50.7855 39.8635V16.1384C50.7855 13.2417 49.6348 10.4637 47.5865 8.41539C45.5382 6.36711 42.7602 5.21641 39.8635 5.21641H16.1384C13.2417 5.21641 10.4637 6.36711 8.41539 8.41539C6.36712 10.4637 5.21641 13.2417 5.21641 16.1384V39.8635C5.21641 42.7602 6.36712 45.5382 8.41539 47.5865C10.4637 49.6348 13.2417 50.7855 16.1384 50.7855H39.8635C42.7602 50.7855 45.5382 49.6348 47.5865 47.5865C49.6348 45.5382 50.7855 42.7602 50.7855 39.8635Z" fill="#6A056D"/>
<path d="M42.7569 28.001C42.7569 30.9194 41.8914 33.7723 40.27 36.1989C38.6486 38.6255 36.3441 40.5168 33.6478 41.6336C30.9515 42.7505 27.9846 43.0427 25.1222 42.4734C22.2598 41.904 19.6306 40.4986 17.5669 38.435C15.5033 36.3713 14.0979 33.7421 13.5285 30.8797C12.9592 28.0173 13.2514 25.0504 14.3682 22.3541C15.4851 19.6578 17.3764 17.3533 19.803 15.7319C22.2296 14.1104 25.0825 13.245 28.0009 13.245C31.9145 13.245 35.6677 14.7997 38.435 17.5669C41.2022 20.3342 42.7569 24.0874 42.7569 28.001ZM28.0009 18.4973C26.1213 18.4973 24.2839 19.0547 22.721 20.099C21.1581 21.1433 19.94 22.6275 19.2207 24.3641C18.5014 26.1006 18.3132 28.0115 18.6799 29.855C19.0466 31.6985 19.9518 33.3919 21.2809 34.721C22.61 36.0501 24.3034 36.9553 26.1469 37.322C27.9904 37.6887 29.9013 37.5005 31.6378 36.7812C33.3744 36.0619 34.8586 34.8438 35.9029 33.2809C36.9472 31.718 37.5046 29.8806 37.5046 28.001C37.5046 25.4804 36.5033 23.0632 34.721 21.2809C32.9387 19.4986 30.5215 18.4973 28.0009 18.4973Z" fill="#6A056D"/>
<path d="M42.7399 16.2668C44.4974 16.2668 45.9222 14.8421 45.9222 13.0845C45.9222 11.3269 44.4974 9.90213 42.7399 9.90213C40.9823 9.90213 39.5575 11.3269 39.5575 13.0845C39.5575 14.8421 40.9823 16.2668 42.7399 16.2668Z" fill="#6A056D"/>
</g>
<defs>
<clipPath id="clip0_5_44">
<rect width="56" height="56" fill="white"/>
</clipPath>
</defs>
</svg>
