<svg width="56" height="43" viewBox="0 0 56 43" fill="none" xmlns="http://www.w3.org/2000/svg">
<g clip-path="url(#clip0_5_51)" filter="url(#filter0_i_5_51)">
<path d="M56 12.8905C56 15.44 55.2498 17.9322 53.8442 20.052C52.4385 22.1719 50.4407 23.8241 48.1032 24.7997C45.7658 25.7754 43.1937 26.0306 40.7123 25.5333C38.2309 25.0359 35.9515 23.8082 34.1625 22.0054C32.3735 20.2026 31.1552 17.9058 30.6616 15.4053C30.168 12.9048 30.4214 10.3129 31.3896 7.95749C32.3578 5.60207 33.9974 3.58885 36.101 2.17243C38.2046 0.756002 40.6779 0 43.2079 0C44.8878 0 46.5512 0.333417 48.1032 0.981223C49.6552 1.62903 51.0654 2.57853 52.2533 3.77552C53.4411 4.97251 54.3834 6.39355 55.0263 7.95749C55.6691 9.52143 56 11.1977 56 12.8905ZM43.2079 4.48394C41.5579 4.48394 39.945 4.97698 38.5732 5.9007C37.2013 6.82442 36.132 8.13733 35.5006 9.67342C34.8692 11.2095 34.704 12.8998 35.0258 14.5305C35.3477 16.1612 36.1423 17.6591 37.309 18.8348C38.4757 20.0104 39.9621 20.8111 41.5804 21.1355C43.1987 21.4598 44.876 21.2933 46.4004 20.6571C47.9248 20.0208 49.2277 18.9433 50.1443 17.5609C51.061 16.1784 51.5503 14.5531 51.5503 12.8905C51.5503 11.7865 51.3345 10.6933 50.9152 9.67342C50.496 8.6535 49.8815 7.72677 49.1069 6.94615C48.3322 6.16554 47.4125 5.54632 46.4004 5.12385C45.3882 4.70139 44.3034 4.48394 43.2079 4.48394Z" fill="#242878"/>
<path d="M30.4263 13.4342L23.1701 24.6088L31.9364 33.4425L42.6683 25.7668L30.4263 13.4342Z" fill="#242878"/>
<path d="M31.7577 33.8026C31.7577 35.6182 31.2235 37.393 30.2225 38.9026C29.2215 40.4122 27.7988 41.5888 26.1342 42.2836C24.4696 42.9784 22.638 43.1602 20.8708 42.806C19.1037 42.4517 17.4806 41.5775 16.2066 40.2936C14.9325 39.0098 14.0649 37.3742 13.7134 35.5935C13.3619 33.8128 13.5423 31.967 14.2318 30.2897C14.9213 28.6123 16.0889 27.1786 17.587 26.1699C19.0851 25.1612 20.8463 24.6229 22.6481 24.6229C25.0641 24.6229 27.3812 25.59 29.0896 27.3115C30.798 29.0331 31.7577 31.368 31.7577 33.8026ZM22.6481 27.0943C21.3314 27.0943 20.0443 27.4878 18.9496 28.2249C17.8548 28.962 17.0016 30.0097 16.4977 31.2355C15.9939 32.4612 15.862 33.81 16.1189 35.1113C16.3758 36.4126 17.0098 37.6079 17.9408 38.5461C18.8718 39.4842 20.058 40.1231 21.3493 40.382C22.6407 40.6408 23.9792 40.508 25.1956 40.0002C26.412 39.4925 27.4517 38.6327 28.1832 37.5295C28.9147 36.4263 29.3051 35.1294 29.3051 33.8026C29.3005 32.0241 28.5952 30.3202 27.3442 29.0655C26.0932 27.8109 24.399 27.1082 22.634 27.112L22.6481 27.0943Z" fill="#242878"/>
<path d="M1.43302 30.6497C1.43302 30.6497 16.1241 37.2344 22.105 39.2116C28.9933 37.591 27.9982 33.6896 26.5757 30.6497C25.1532 27.6098 4.75104 21.0922 0.00700378 19.0197C0.620155 25.2408 1.43302 30.6497 1.43302 30.6497Z" fill="#242878"/>
<path d="M43.2079 19.0656C46.5923 19.0656 49.3359 16.3009 49.3359 12.8905C49.3359 9.48003 46.5923 6.71533 43.2079 6.71533C39.8235 6.71533 37.0799 9.48003 37.0799 12.8905C37.0799 16.3009 39.8235 19.0656 43.2079 19.0656Z" fill="#242878"/>
</g>
<defs>
<filter id="filter0_i_5_51" x="0" y="0" width="56" height="43" filterUnits="userSpaceOnUse" color-interpolation-filters="sRGB">
<feFlood flood-opacity="0" result="BackgroundImageFix"/>
<feBlend mode="normal" in="SourceGraphic" in2="BackgroundImageFix" result="shape"/>
<feColorMatrix in="SourceAlpha" type="matrix" values="0 0 0 0 0 0 0 0 0 0 0 0 0 0 0 0 0 0 127 0" result="hardAlpha"/>
<feOffset dx="-1" dy="1"/>
<feComposite in2="hardAlpha" operator="arithmetic" k2="-1" k3="1"/>
<feColorMatrix type="matrix" values="0 0 0 0 0.388235 0 0 0 0 0.411765 0 0 0 0 0.913725 0 0 0 0.25 0"/>
<feBlend mode="normal" in2="shape" result="effect1_innerShadow_5_51"/>
</filter>
<clipPath id="clip0_5_51">
<rect width="56" height="43" fill="white"/>
</clipPath>
</defs>
</svg>
